<svg xmlns="http://www.w3.org/2000/svg" viewBox="0 0 154.67 156"><defs><style>.ac44203a-9361-4ce5-8bdb-01bcd1da8afd{fill:#37bbe4;}</style></defs><title>CreateTrips</title><g id="b9953384-7a0c-4279-986b-bc95d2abfb62" data-name="Layer 2"><g id="e28b4347-6383-4287-b903-da2e0231cea0" data-name="Layer 1"><path class="ac44203a-9361-4ce5-8bdb-01bcd1da8afd" d="M1.66,96.5a1.64,1.64,0,0,0,1.12-.44L9,90.26a1.66,1.66,0,0,0-2-2.62l-.22.21L.52,93.65A1.66,1.66,0,0,0,.48,96,1.63,1.63,0,0,0,1.66,96.5Z"/><path class="ac44203a-9361-4ce5-8bdb-01bcd1da8afd" d="M12,96.52a1.65,1.65,0,0,0,1.13-.45l9.46-8.84a1.66,1.66,0,1,0-2.18-2.5.6.6,0,0,0-.08.08l-9.46,8.84A1.67,1.67,0,0,0,10.78,96a1.7,1.7,0,0,0,1.22.52Z"/><path class="ac44203a-9361-4ce5-8bdb-01bcd1da8afd" d="M92.41,98.3a1.65,1.65,0,1,0,2.49-2.18l-.06-.06L65.75,64.57a1.65,1.65,0,0,0-2.24-.17l-26.67,21L24.24,73.59a1.66,1.66,0,0,0-2.26,0l-7,6.52a1.66,1.66,0,0,0,2.17,2.51l.09-.09,5.84-5.46L44.74,97.28V92.75l-5.45-5.1L64.35,67.94Z"/><path class="ac44203a-9361-4ce5-8bdb-01bcd1da8afd" d="M13.88,64.1a1.65,1.65,0,0,0,2.34,0h0l.69-.69a3.71,3.71,0,0,1,5.25,0h0a1.66,1.66,0,0,0,2.35-2.34,7,7,0,0,0-9.6-.35,7,7,0,0,0-8.62,1A1.66,1.66,0,0,0,8.63,64.1,3.73,3.73,0,0,1,13.88,64.1Z"/><path class="ac44203a-9361-4ce5-8bdb-01bcd1da8afd" d="M5,149.37H8.29a1.65,1.65,0,0,0,1.65-1.66,11.6,11.6,0,0,1,23.2,0,1.66,1.66,0,0,0,1.66,1.66H51.37A1.66,1.66,0,0,0,53,147.71a11.6,11.6,0,0,1,23.19,0,1.66,1.66,0,0,0,1.66,1.66h6.63a1.66,1.66,0,0,0,1.66-1.66V127.83A24,24,0,0,0,69.6,105V91.37a1.65,1.65,0,0,0-1.36-1.65L50,86.4a1.66,1.66,0,0,0-1.93,1.33,1.84,1.84,0,0,0,0,.33V99.51a1.66,1.66,0,0,0,1.65,1.67h.24l16.34-2.24v5.25a24,24,0,0,0-4.14-.38H3.31A3.32,3.32,0,0,0,0,107.12V144.4A5,5,0,0,0,5,149.37Zm46.4-51.76V90.05l14.91,2.71v2.82Zm8.28,9.51h2.49a20.72,20.72,0,0,1,20.65,19H59.65ZM3.31,129.49h9.12a1.66,1.66,0,0,0,0-3.32H3.31v-19h53v19H20.71a1.66,1.66,0,0,0,0,3.32H82.85v16.57H79.44a14.91,14.91,0,0,0-29.63,0H36.36a14.91,14.91,0,0,0-29.63,0H5a1.66,1.66,0,0,1-1.66-1.66Z"/><path class="ac44203a-9361-4ce5-8bdb-01bcd1da8afd" d="M64.63,156a8.29,8.29,0,1,0-8.29-8.29A8.29,8.29,0,0,0,64.63,156Zm0-13.26a5,5,0,1,1-5,5A5,5,0,0,1,64.63,142.74Z"/><path class="ac44203a-9361-4ce5-8bdb-01bcd1da8afd" d="M29.83,147.71A8.29,8.29,0,1,0,21.54,156,8.29,8.29,0,0,0,29.83,147.71Zm-8.29,5a5,5,0,1,1,5-5A5,5,0,0,1,21.54,152.69Z"/><path class="ac44203a-9361-4ce5-8bdb-01bcd1da8afd" d="M19.88,121.2v-9.11a1.65,1.65,0,0,0-1.65-1.66H8.29a1.66,1.66,0,0,0-1.66,1.66v9.11a1.66,1.66,0,0,0,1.66,1.66h9.94A1.65,1.65,0,0,0,19.88,121.2Zm-3.31-1.66H9.94v-5.8h6.63Z"/><path class="ac44203a-9361-4ce5-8bdb-01bcd1da8afd" d="M24.86,122.86H34.8a1.66,1.66,0,0,0,1.66-1.66v-9.11a1.66,1.66,0,0,0-1.66-1.66H24.86a1.66,1.66,0,0,0-1.66,1.66v9.11A1.66,1.66,0,0,0,24.86,122.86Zm1.65-9.12h6.63v5.8H26.51Z"/><path class="ac44203a-9361-4ce5-8bdb-01bcd1da8afd" d="M41.43,122.86h9.94A1.66,1.66,0,0,0,53,121.2v-9.11a1.66,1.66,0,0,0-1.66-1.66H41.43a1.66,1.66,0,0,0-1.66,1.66v9.11A1.66,1.66,0,0,0,41.43,122.86Zm1.65-9.12h6.63v5.8H43.08Z"/><path class="ac44203a-9361-4ce5-8bdb-01bcd1da8afd" d="M137.59,41a5.11,5.11,0,0,1-5.13,5.12H118.79V59.79a5.13,5.13,0,1,1-10.25,0V46.12H94.88a5.12,5.12,0,0,1,0-10.24h13.66V22.21a5.13,5.13,0,0,1,10.25,0V35.88h13.67A5.11,5.11,0,0,1,137.59,41Z"/><path class="ac44203a-9361-4ce5-8bdb-01bcd1da8afd" d="M113.67,82a41,41,0,1,1,41-41A41,41,0,0,1,113.67,82Zm0-75.17A34.17,34.17,0,1,0,147.84,41,34.21,34.21,0,0,0,113.67,6.83Z"/></g></g></svg>