<svg xmlns="http://www.w3.org/2000/svg" viewBox="0 0 146.58 151.43"><defs><style>.a3caed5c-68bf-45ea-b1ac-5c114244f2b3{fill:#37bbe4;}</style></defs><title>FindTrips</title><g id="b95f35d4-075b-4d7b-aac0-911871b0f347" data-name="Layer 2"><g id="a5d7ae02-ee88-4adf-9f10-a31a10121c38" data-name="Layer 1"><path class="a3caed5c-68bf-45ea-b1ac-5c114244f2b3" d="M1.69,90.75a1.69,1.69,0,0,0,1.15-.46l6.31-5.91a1.69,1.69,0,0,0-2.08-2.67,2.39,2.39,0,0,0-.23.22L.53,87.84a1.7,1.7,0,0,0,1.16,2.91Z"/><path class="a3caed5c-68bf-45ea-b1ac-5c114244f2b3" d="M12.23,90.76a1.72,1.72,0,0,0,1.15-.45l9.65-9a1.69,1.69,0,0,0-2.22-2.55l-.09.08-9.64,9A1.69,1.69,0,0,0,11,90.23a1.66,1.66,0,0,0,1.24.53Z"/><path class="a3caed5c-68bf-45ea-b1ac-5c114244f2b3" d="M94.24,92.58a1.69,1.69,0,0,0,2.55-2.22.46.46,0,0,0-.07-.07L67.06,58.18A1.7,1.7,0,0,0,64.77,58L37.57,79.39l-12.85-12a1.69,1.69,0,0,0-2.3,0L15.29,74a1.7,1.7,0,0,0-.16,2.39,1.68,1.68,0,0,0,2.38.16l.09-.08,6-5.57L45.63,91.54V86.92l-5.56-5.2L65.63,61.61Z"/><path class="a3caed5c-68bf-45ea-b1ac-5c114244f2b3" d="M14.15,57.7a1.69,1.69,0,0,0,2.39,0h0l.71-.7a3.78,3.78,0,0,1,5.35,0h0A1.69,1.69,0,1,0,25,54.61a7.18,7.18,0,0,0-9.78-.36,7.18,7.18,0,0,0-8.8,1.06A1.69,1.69,0,0,0,8.8,57.7,3.8,3.8,0,0,1,14.15,57.7Z"/><path class="a3caed5c-68bf-45ea-b1ac-5c114244f2b3" d="M5.07,144.67H8.45A1.69,1.69,0,0,0,10.14,143a11.83,11.83,0,0,1,23.66,0,1.69,1.69,0,0,0,1.69,1.69h16.9A1.69,1.69,0,0,0,54.08,143a11.83,11.83,0,0,1,23.66,0,1.69,1.69,0,0,0,1.69,1.69h6.76A1.69,1.69,0,0,0,87.88,143V122.7A24.51,24.51,0,0,0,71,99.41V85.52a1.69,1.69,0,0,0-1.39-1.69L51,80.45a1.68,1.68,0,0,0-2,1.36,1.76,1.76,0,0,0,0,.33V93.81a1.69,1.69,0,0,0,1.67,1.71,1.06,1.06,0,0,0,.25,0L67.6,93.22v5.35a25,25,0,0,0-4.23-.38h-60A3.38,3.38,0,0,0,0,101.57v38A5.07,5.07,0,0,0,5.07,144.67ZM52.39,91.88V84.17L67.6,86.93v2.88Zm8.45,9.69h2.53A21.13,21.13,0,0,1,84.43,121H60.84ZM3.38,124.39h9.29a1.69,1.69,0,1,0,0-3.38H3.38V101.57H57.46V121H21.12a1.69,1.69,0,0,0,0,3.38H84.5v16.9H81a15.21,15.21,0,0,0-30.22,0H37.09a15.21,15.21,0,0,0-30.23,0H5.07a1.69,1.69,0,0,1-1.69-1.69Z"/><path class="a3caed5c-68bf-45ea-b1ac-5c114244f2b3" d="M65.91,151.43A8.45,8.45,0,1,0,57.46,143,8.46,8.46,0,0,0,65.91,151.43Zm0-13.52A5.07,5.07,0,1,1,60.84,143,5.07,5.07,0,0,1,65.91,137.91Z"/><path class="a3caed5c-68bf-45ea-b1ac-5c114244f2b3" d="M30.42,143A8.45,8.45,0,1,0,22,151.43,8.45,8.45,0,0,0,30.42,143ZM22,148.05A5.07,5.07,0,1,1,27,143,5.07,5.07,0,0,1,22,148.05Z"/><path class="a3caed5c-68bf-45ea-b1ac-5c114244f2b3" d="M20.28,115.94v-9.3A1.69,1.69,0,0,0,18.59,105H8.45a1.69,1.69,0,0,0-1.69,1.69v9.3a1.69,1.69,0,0,0,1.69,1.69H18.59A1.69,1.69,0,0,0,20.28,115.94Zm-3.38-1.69H10.14v-5.92H16.9Z"/><path class="a3caed5c-68bf-45ea-b1ac-5c114244f2b3" d="M25.35,117.63H35.49a1.69,1.69,0,0,0,1.69-1.69v-9.3A1.69,1.69,0,0,0,35.49,105H25.35a1.69,1.69,0,0,0-1.69,1.69v9.3A1.69,1.69,0,0,0,25.35,117.63Zm1.69-9.3H33.8v5.92H27Z"/><path class="a3caed5c-68bf-45ea-b1ac-5c114244f2b3" d="M42.25,117.63H52.39a1.69,1.69,0,0,0,1.69-1.69v-9.3A1.69,1.69,0,0,0,52.39,105H42.25a1.69,1.69,0,0,0-1.69,1.69v9.3A1.69,1.69,0,0,0,42.25,117.63Zm1.69-9.3H50.7v5.92H43.94Z"/><path class="a3caed5c-68bf-45ea-b1ac-5c114244f2b3" d="M91.54,0a29.94,29.94,0,0,1,23.13,49l1.72,1.72.67-.66a3,3,0,0,1,4.1,0l24.62,24.58a3,3,0,0,1,0,4.11l-5.47,5.46a3,3,0,0,1-4.11,0L111.59,59.58a3,3,0,0,1,0-4.08l.7-.72-1.73-1.72A29.94,29.94,0,1,1,91.54,0ZM67.38,30A24.16,24.16,0,1,0,91.54,5.8,24.11,24.11,0,0,0,67.38,30ZM91.54,9.66a21.61,21.61,0,0,1,15.55,6.62,3.11,3.11,0,0,1,0,4.22,2.9,2.9,0,0,1-4-.06,15.87,15.87,0,0,0-23,0c-1,.86-3.15,1-4-.08A3.34,3.34,0,0,1,76,16.28,21.59,21.59,0,0,1,91.54,9.66Zm26.21,47.87L138.26,78l1.35-1.36-20.5-20.5Z"/></g></g></svg>