<svg xmlns="http://www.w3.org/2000/svg" viewBox="0 0 246.31 180.15"><defs><style>.f6f8e771-e65d-400c-9e17-2ebf4de95596{font-size:36px;fill:#0098d8;font-family:HelveticaNeue, Helvetica Neue;}.e9f52a71-202a-4917-8bd0-378ef87c497b{letter-spacing:-0.02em;}.ae179146-17b0-4d65-a33c-e719fe218b8c{fill:#37bbe4;}</style></defs><title>Groups</title><g id="ef9d6831-9fea-4ab5-8918-ec2153defd7a" data-name="Layer 2"><g id="a4959464-fbb0-4b51-89a6-2370ef2ee400" data-name="Layer 1"><text class="f6f8e771-e65d-400c-9e17-2ebf4de95596" transform="translate(27.81 160.39)">See G<tspan class="e9f52a71-202a-4917-8bd0-378ef87c497b" x="99.32" y="0">r</tspan><tspan x="110.66" y="0">oups</tspan></text><path class="ae179146-17b0-4d65-a33c-e719fe218b8c" d="M142.15,100.58a9.55,9.55,0,0,0,9.76-9.32v-1a9.06,9.06,0,0,0-2.27-6l-3.26-3.73a17.89,17.89,0,0,0-13.5-6H112.39a17.92,17.92,0,0,0-13.49,6l-3.26,3.73a9.05,9.05,0,0,0-2.28,6v1a9.55,9.55,0,0,0,9.76,9.32ZM97.26,91.26v-1a5.48,5.48,0,0,1,1.37-3.58l3.26-3.72a13.92,13.92,0,0,1,10.5-4.71h20.49a13.88,13.88,0,0,1,10.5,4.69l3.26,3.72A5.44,5.44,0,0,1,148,90.22v1a5.72,5.72,0,0,1-5.85,5.59h-39A5.73,5.73,0,0,1,97.26,91.26Z"/><path class="ae179146-17b0-4d65-a33c-e719fe218b8c" d="M89.46,39.11c9.7,0,17.56-7.5,17.56-16.76V16.76C107,7.5,99.16,0,89.46,0S71.89,7.5,71.89,16.76v5.59C71.89,31.61,79.76,39.11,89.46,39.11ZM75.8,16.76c0-7.2,6.11-13,13.66-13s13.66,5.83,13.66,13v5.59c0,7.2-6.12,13-13.66,13s-13.66-5.84-13.66-13Z"/><path class="ae179146-17b0-4d65-a33c-e719fe218b8c" d="M179.56,48.87a17.9,17.9,0,0,0-13.5-6h-20.5a18.46,18.46,0,0,0-6,1c-2.66-8.9-12.38-14.06-21.7-11.52a17.19,17.19,0,0,0-12.08,11.52,18.23,18.23,0,0,0-6-1H79.21a17.88,17.88,0,0,0-13.48,6L62.47,52.6a9,9,0,0,0-2.29,6v1a9.54,9.54,0,0,0,9.76,9.31h39a10.24,10.24,0,0,0,4.1-.85,18.21,18.21,0,0,0,19.13,0,10.23,10.23,0,0,0,4.09.85h39a9.54,9.54,0,0,0,9.75-9.31v-1a9,9,0,0,0-2.26-6ZM69.94,65.19a5.72,5.72,0,0,1-5.85-5.59v-1A5.42,5.42,0,0,1,65.45,55l3.26-3.73a14,14,0,0,1,10.5-4.71H99.7a14.5,14.5,0,0,1,5.41,1.08V54a16.35,16.35,0,0,0,4.47,11.18H69.94ZM109,54V48.43a12.06,12.06,0,0,1,.14-1.7h0c1.06-7.13,8-12.09,15.45-11.07a13.25,13.25,0,0,1,11.73,12.77V54c0,7.2-6.11,13-13.66,13S109,61.21,109,54Zm72.21,5.59a5.72,5.72,0,0,1-5.85,5.59h-39.6A16.35,16.35,0,0,0,140.2,54V47.64a14.25,14.25,0,0,1,5.36-1.08h20.5a13.9,13.9,0,0,1,10.49,4.7L179.81,55a5.43,5.43,0,0,1,1.37,3.58Z"/><path class="ae179146-17b0-4d65-a33c-e719fe218b8c" d="M155.81,39.11c9.7,0,17.56-7.5,17.56-16.76V16.76C173.37,7.5,165.51,0,155.81,0s-17.56,7.5-17.56,16.76v5.59C138.25,31.61,146.11,39.11,155.81,39.11ZM142.15,16.76c0-7.2,6.11-13,13.66-13s13.66,5.83,13.66,13v5.59c0,7.2-6.12,13-13.66,13s-13.66-5.84-13.66-13Z"/></g></g></svg>