<svg xmlns="http://www.w3.org/2000/svg" viewBox="0 0 126.97 118.06"><defs><style>.ee1b157c-e017-46c7-b053-fbf4ab78eb34{isolation:isolate;}.fbdc3459-5429-4e2f-a95c-8dd72461ceaf{fill:#ccc;}.f18897db-208e-4f82-80f3-1532ec1193ac{fill:gray;}.b424ed6d-844a-4a3f-84fb-6dafd0e09d80{fill:#1a1a1a;}.e0501635-8e90-4b4c-82e1-4cea0c874cb5{fill:#333;}.fc7a3067-6c19-449d-8d3d-35a4e406e459{fill:#0098d8;}.ab376b9c-5d25-47ff-b919-29639dea4663{fill:#fff;}.a38c6a76-b890-4b5a-a5d3-37d34585f4a5{fill:#f2f2f2;}.e5e97c65-6276-41e7-86fc-be356f285f0a{fill:#666;}.a47aba04-fa98-4827-b6f4-e65df9ac3c12{fill:#4d4d4d;opacity:0.22;mix-blend-mode:multiply;}</style></defs><title>Karwan _logo</title><g class="ee1b157c-e017-46c7-b053-fbf4ab78eb34"><g id="a3b79b49-da0f-4e64-8b87-1594b9937f1a" data-name="Layer 2"><g id="b7b65f00-71e9-4512-ab98-12b8b9758be4" data-name="Layer 1"><rect class="fbdc3459-5429-4e2f-a95c-8dd72461ceaf" x="49.26" y="22.55" width="61.91" height="0.75" transform="translate(6.89 62.73) rotate(-44.45)"/><rect class="f18897db-208e-4f82-80f3-1532ec1193ac" x="56.54" y="41.93" width="3.02" height="1.13"/><path class="f18897db-208e-4f82-80f3-1532ec1193ac" d="M58.12,45.17a.56.56,0,0,1-.56-.56v-2a.56.56,0,1,1,1.12,0v2A.56.56,0,0,1,58.12,45.17Z"/><rect class="fbdc3459-5429-4e2f-a95c-8dd72461ceaf" x="-7.28" y="55.48" width="61.91" height="0.75" transform="translate(-32.34 32.56) rotate(-44.45)"/><path class="b424ed6d-844a-4a3f-84fb-6dafd0e09d80" d="M90.87,8.6,90.14,7a1.28,1.28,0,0,1-.1-.72,5.12,5.12,0,0,1,1.4-2.84L92.5,4.48a3.61,3.61,0,0,0-1,1.93L92.24,8Z"/><path class="b424ed6d-844a-4a3f-84fb-6dafd0e09d80" d="M70.68,20.48,70,18.87a1.41,1.41,0,0,1-.11-.73,5.09,5.09,0,0,1,1.41-2.83l1.06,1.06a3.53,3.53,0,0,0-1,1.93l.71,1.57Z"/><path class="b424ed6d-844a-4a3f-84fb-6dafd0e09d80" d="M50.49,32.37l-.73-1.62a1.38,1.38,0,0,1-.11-.72,5.1,5.1,0,0,1,1.4-2.83l1.07,1.05a3.56,3.56,0,0,0-1,1.93l.7,1.58Z"/><polygon class="e0501635-8e90-4b4c-82e1-4cea0c874cb5" points="45.78 33.45 64.26 109.93 37.73 94.36 7.75 76.77 45.78 33.45"/><polygon class="fc7a3067-6c19-449d-8d3d-35a4e406e459" points="102.73 0 45.78 33.45 64.26 109.93 121.22 77.05 102.73 0"/><path class="b424ed6d-844a-4a3f-84fb-6dafd0e09d80" d="M53.75,33.59h0a.76.76,0,0,1,.59-.73,2.63,2.63,0,1,0-3.21-2.56h-1.5a4.13,4.13,0,1,1,5,4A.75.75,0,0,1,53.75,33.59Z"/><path class="b424ed6d-844a-4a3f-84fb-6dafd0e09d80" d="M74,21.71h0a.73.73,0,0,1,.59-.73,2.63,2.63,0,1,0-3.22-2.56h-1.5a4.13,4.13,0,1,1,5.05,4A.75.75,0,0,1,74,21.71Z"/><path class="b424ed6d-844a-4a3f-84fb-6dafd0e09d80" d="M94.14,9.82h0a.76.76,0,0,1,.59-.73,2.63,2.63,0,1,0-3.22-2.56H90a4.13,4.13,0,1,1,5,4A.75.75,0,0,1,94.14,9.82Z"/><polygon class="ab376b9c-5d25-47ff-b919-29639dea4663" points="54.53 49.76 102.97 21.79 116.66 75.13 68.14 103.47 54.53 49.76"/><polygon class="a38c6a76-b890-4b5a-a5d3-37d34585f4a5" points="65.96 45.37 101.87 24.64 102.76 29.02 67.01 49.9 65.96 45.37"/><polygon class="a38c6a76-b890-4b5a-a5d3-37d34585f4a5" points="56.09 50.68 64.81 45.92 65.71 50.39 57.15 55.21 56.09 50.68"/><polygon class="e5e97c65-6276-41e7-86fc-be356f285f0a" points="28.94 97.04 45.78 33.45 7.75 76.77 28.94 97.04"/><polygon class="a38c6a76-b890-4b5a-a5d3-37d34585f4a5" points="59.34 64.94 58.43 60.74 68.86 54.58 69.77 58.78 59.34 64.94"/><polygon class="a38c6a76-b890-4b5a-a5d3-37d34585f4a5" points="61.26 71.44 60.34 67.24 70.77 61.07 71.69 65.27 61.26 71.44"/><polygon class="a38c6a76-b890-4b5a-a5d3-37d34585f4a5" points="62.8 77.94 61.88 73.74 72.31 67.57 73.23 71.77 62.8 77.94"/><polygon class="a38c6a76-b890-4b5a-a5d3-37d34585f4a5" points="64.34 84.43 63.42 80.23 73.85 74.06 74.77 78.27 64.34 84.43"/><polygon class="a38c6a76-b890-4b5a-a5d3-37d34585f4a5" points="65.88 90.93 64.96 86.73 75.39 80.56 76.31 84.76 65.88 90.93"/><polygon class="a38c6a76-b890-4b5a-a5d3-37d34585f4a5" points="67.42 97.42 66.5 93.22 76.93 87.06 77.85 91.26 67.42 97.42"/><polygon class="a38c6a76-b890-4b5a-a5d3-37d34585f4a5" points="80.9 95.6 77.55 82.57 87.98 76.41 91.33 89.43 80.9 95.6"/><polygon class="a38c6a76-b890-4b5a-a5d3-37d34585f4a5" points="77.3 81.58 73.95 68.56 84.38 62.39 87.73 75.42 77.3 81.58"/><polygon class="a38c6a76-b890-4b5a-a5d3-37d34585f4a5" points="73.69 66.73 70.34 53.7 80.77 47.53 84.12 60.56 73.69 66.73"/><polygon class="a38c6a76-b890-4b5a-a5d3-37d34585f4a5" points="92.82 88.56 89.47 75.53 99.9 69.36 103.25 82.39 92.82 88.56"/><polygon class="a38c6a76-b890-4b5a-a5d3-37d34585f4a5" points="89.21 74.54 85.86 61.51 96.29 55.35 99.64 68.37 89.21 74.54"/><polygon class="a38c6a76-b890-4b5a-a5d3-37d34585f4a5" points="85.61 60.52 82.25 47.5 92.68 41.33 96.04 54.36 85.61 60.52"/><polygon class="a38c6a76-b890-4b5a-a5d3-37d34585f4a5" points="104.73 80.67 101.38 67.65 111.81 61.48 115.16 74.51 104.73 80.67"/><polygon class="a38c6a76-b890-4b5a-a5d3-37d34585f4a5" points="101.13 67.5 97.78 54.47 108.2 48.3 111.56 61.33 101.13 67.5"/><polygon class="a38c6a76-b890-4b5a-a5d3-37d34585f4a5" points="97.52 53.48 94.17 40.45 104.6 34.29 107.95 47.31 97.52 53.48"/><rect class="f18897db-208e-4f82-80f3-1532ec1193ac" y="74.86" width="3.02" height="1.13"/><path class="f18897db-208e-4f82-80f3-1532ec1193ac" d="M1.58,78.1A.56.56,0,0,1,1,77.54v-2a.57.57,0,0,1,1.13,0v2A.56.56,0,0,1,1.58,78.1Z"/><rect class="fbdc3459-5429-4e2f-a95c-8dd72461ceaf" x="57.01" y="31.87" width="0.75" height="87.2" transform="translate(-18.03 18.01) rotate(-15.44)"/><rect class="f18897db-208e-4f82-80f3-1532ec1193ac" x="67.41" y="114.81" width="3.02" height="1.13"/><path class="f18897db-208e-4f82-80f3-1532ec1193ac" d="M69,118.06a.57.57,0,0,1-.56-.57v-2a.56.56,0,0,1,1.12,0v2A.57.57,0,0,1,69,118.06Z"/><rect class="fbdc3459-5429-4e2f-a95c-8dd72461ceaf" x="113.55" y="-1.06" width="0.75" height="87.2" transform="translate(-7.21 31.88) rotate(-15.44)"/><path class="f18897db-208e-4f82-80f3-1532ec1193ac" d="M125.53,85.13a.57.57,0,0,1-.56-.57v-2a.56.56,0,0,1,.56-.56.57.57,0,0,1,.57.56v2A.58.58,0,0,1,125.53,85.13Z"/><rect class="f18897db-208e-4f82-80f3-1532ec1193ac" x="123.95" y="81.88" width="3.02" height="1.13"/><polygon class="a47aba04-fa98-4827-b6f4-e65df9ac3c12" points="45.42 33.55 37.73 94.36 30.76 90.16 45.42 33.55"/></g></g></g></svg>