<svg xmlns="http://www.w3.org/2000/svg" viewBox="0 0 110.62 131.74"><defs><style>.b5ee11ce-3ea4-4221-9f3a-4e834a573212{fill:#fff;}</style></defs><title>ShowTrips</title><g id="e3f5c1a3-e990-4b30-a82f-500f09ad2724" data-name="Layer 2"><g id="e2c5547b-4b78-41ca-a7fb-0b07a40394cb" data-name="Layer 1"><path class="b5ee11ce-3ea4-4221-9f3a-4e834a573212" d="M1.62,73.47A1.64,1.64,0,0,0,2.73,73l6.06-5.68a1.62,1.62,0,0,0-2-2.56,1.45,1.45,0,0,0-.22.21L.51,70.68A1.62,1.62,0,0,0,.47,73,1.66,1.66,0,0,0,1.62,73.47Z"/><path class="b5ee11ce-3ea4-4221-9f3a-4e834a573212" d="M11.74,73.48a1.63,1.63,0,0,0,1.11-.43l9.26-8.66A1.62,1.62,0,1,0,20,61.94L19.9,62l-9.26,8.66a1.62,1.62,0,0,0,1.11,2.8Z"/><path class="b5ee11ce-3ea4-4221-9f3a-4e834a573212" d="M90.5,75.23a1.64,1.64,0,0,0,2.29.16A1.62,1.62,0,0,0,93,73.1L92.89,73,64.4,42.19A1.63,1.63,0,0,0,62.2,42L36.08,62.56,23.74,51a1.62,1.62,0,0,0-2.21,0l-6.84,6.39a1.62,1.62,0,0,0-.16,2.29,1.64,1.64,0,0,0,2.29.16l.08-.08,5.72-5.35,21.2,19.79V69.79l-5.34-5L63,45.49Z"/><path class="b5ee11ce-3ea4-4221-9f3a-4e834a573212" d="M13.59,41.73a1.62,1.62,0,0,0,2.3,0h0l.67-.67a3.63,3.63,0,0,1,5.14,0h0A1.62,1.62,0,0,0,24,38.76a6.89,6.89,0,0,0-9.39-.34,6.88,6.88,0,0,0-8.45,1,1.62,1.62,0,0,0,2.3,2.29A3.64,3.64,0,0,1,13.59,41.73Z"/><path class="b5ee11ce-3ea4-4221-9f3a-4e834a573212" d="M4.87,125.25H8.11a1.63,1.63,0,0,0,1.63-1.63,11.36,11.36,0,0,1,22.72,0,1.62,1.62,0,0,0,1.62,1.63H50.31a1.62,1.62,0,0,0,1.62-1.63,11.36,11.36,0,0,1,22.72,0,1.63,1.63,0,0,0,1.63,1.63h6.49a1.63,1.63,0,0,0,1.62-1.63V104.15A23.51,23.51,0,0,0,68.16,81.79V68.44a1.62,1.62,0,0,0-1.33-1.62L49,63.58a1.62,1.62,0,0,0-1.89,1.3,1.73,1.73,0,0,0,0,.32V76.41a1.63,1.63,0,0,0,1.61,1.64h.24l16-2.19V81a23,23,0,0,0-4.06-.36H3.25A3.24,3.24,0,0,0,0,83.86v36.52A4.87,4.87,0,0,0,4.87,125.25ZM50.31,74.56V67.15L64.92,69.8v2.77Zm8.11,9.3h2.44a20.3,20.3,0,0,1,20.22,18.67H58.42ZM3.25,105.77h8.92a1.62,1.62,0,1,0,0-3.24H3.25V83.86H55.18v18.67H20.29a1.62,1.62,0,1,0,0,3.24H81.14V122H77.8a14.61,14.61,0,0,0-29,0H35.61a14.6,14.6,0,0,0-29,0H4.87a1.62,1.62,0,0,1-1.62-1.62Z"/><path class="b5ee11ce-3ea4-4221-9f3a-4e834a573212" d="M63.29,131.74a8.12,8.12,0,1,0-8.11-8.12A8.13,8.13,0,0,0,63.29,131.74Zm0-13a4.87,4.87,0,1,1-4.87,4.87A4.87,4.87,0,0,1,63.29,118.75Z"/><path class="b5ee11ce-3ea4-4221-9f3a-4e834a573212" d="M29.21,123.62a8.12,8.12,0,1,0-8.11,8.12A8.11,8.11,0,0,0,29.21,123.62Zm-8.11,4.87A4.87,4.87,0,1,1,26,123.62,4.87,4.87,0,0,1,21.1,128.49Z"/><path class="b5ee11ce-3ea4-4221-9f3a-4e834a573212" d="M19.47,97.66V88.73a1.61,1.61,0,0,0-1.62-1.62H8.11a1.62,1.62,0,0,0-1.62,1.62v8.93a1.63,1.63,0,0,0,1.62,1.62h9.74A1.62,1.62,0,0,0,19.47,97.66ZM16.23,96H9.74V90.35h6.49Z"/><path class="b5ee11ce-3ea4-4221-9f3a-4e834a573212" d="M24.34,99.28h9.74a1.62,1.62,0,0,0,1.62-1.62V88.73a1.61,1.61,0,0,0-1.62-1.62H24.34a1.62,1.62,0,0,0-1.62,1.62v8.93A1.63,1.63,0,0,0,24.34,99.28ZM26,90.35h6.49V96H26Z"/><path class="b5ee11ce-3ea4-4221-9f3a-4e834a573212" d="M40.57,99.28h9.74a1.62,1.62,0,0,0,1.62-1.62V88.73a1.61,1.61,0,0,0-1.62-1.62H40.57A1.62,1.62,0,0,0,39,88.73v8.93A1.63,1.63,0,0,0,40.57,99.28Zm1.63-8.93h6.49V96H42.2Z"/><path class="b5ee11ce-3ea4-4221-9f3a-4e834a573212" d="M110.62,14.84v1.35a14.85,14.85,0,1,1-29.69,0V14.84A14.89,14.89,0,0,1,90.17,1.09h0a14.88,14.88,0,0,1,11-.06h0a14.87,14.87,0,0,1,9.38,13.81Z"/></g></g></svg>