<svg xmlns="http://www.w3.org/2000/svg" viewBox="0 0 246.31 186.35"><defs><style>.b2aa9747-e5bf-4aed-beb5-9f959982a1c4{font-size:36px;font-family:HelveticaNeue, Helvetica Neue;}.a392b302-7b1a-4bda-b994-23c749936c71,.b2aa9747-e5bf-4aed-beb5-9f959982a1c4{fill:#37bbe4;}.a4501036-2f2d-471f-a1fc-0ed2ea6dc727{fill:none;stroke:#37bbe4;stroke-miterlimit:10;stroke-width:2px;}</style></defs><title>Review</title><g id="b16016d8-b9c6-4292-a8db-50378efe168e" data-name="Layer 2"><g id="e64f9a77-4dae-4a77-964e-ed94a07342f5" data-name="Layer 1"><text class="b2aa9747-e5bf-4aed-beb5-9f959982a1c4" transform="translate(64.86 166.59)">Review</text><path class="a392b302-7b1a-4bda-b994-23c749936c71" d="M62.92,56.59a1.68,1.68,0,0,0,1.15-.45l6.31-5.92a1.69,1.69,0,1,0-2.08-2.66,1.51,1.51,0,0,0-.23.21l-6.31,5.92a1.69,1.69,0,0,0,1.16,2.9Z"/><path class="a392b302-7b1a-4bda-b994-23c749936c71" d="M73.46,56.61a1.68,1.68,0,0,0,1.15-.46l9.65-9a1.7,1.7,0,0,0,.16-2.39A1.68,1.68,0,0,0,82,44.59l-.09.08-9.64,9a1.69,1.69,0,0,0,1.15,2.92Z"/><path class="a392b302-7b1a-4bda-b994-23c749936c71" d="M155.47,58.43A1.69,1.69,0,0,0,158,56.21l-.07-.07L128.29,24a1.69,1.69,0,0,0-2.29-.18L98.8,45.24,86,33.23a1.67,1.67,0,0,0-2.3,0l-7.13,6.65a1.69,1.69,0,0,0,2.22,2.55l.09-.08,6-5.57,22.07,20.61V52.77l-5.56-5.2,25.56-20.11Z"/><path class="a392b302-7b1a-4bda-b994-23c749936c71" d="M75.38,23.55a1.69,1.69,0,0,0,2.39,0h0l.71-.71a3.79,3.79,0,0,1,5.35,0h0a1.69,1.69,0,1,0,2.39-2.39,7.18,7.18,0,0,0-9.78-.35,7.18,7.18,0,0,0-8.8,1A1.69,1.69,0,0,0,70,23.55,3.8,3.8,0,0,1,75.38,23.55Z"/><path class="a392b302-7b1a-4bda-b994-23c749936c71" d="M66.3,110.51h3.38a1.69,1.69,0,0,0,1.69-1.69,11.83,11.83,0,0,1,23.66,0,1.69,1.69,0,0,0,1.69,1.69h16.9a1.69,1.69,0,0,0,1.69-1.69,11.83,11.83,0,0,1,23.66,0,1.69,1.69,0,0,0,1.69,1.69h6.76a1.69,1.69,0,0,0,1.69-1.69V88.54a24.51,24.51,0,0,0-16.9-23.29V51.36a1.71,1.71,0,0,0-1.39-1.69l-18.59-3.38a1.68,1.68,0,0,0-2,1.36,1.84,1.84,0,0,0,0,.33V59.66a1.69,1.69,0,0,0,1.67,1.71l.25,0,16.67-2.28v5.35A24,24,0,0,0,124.6,64h-60a3.38,3.38,0,0,0-3.38,3.38v38A5.07,5.07,0,0,0,66.3,110.51Zm47.32-52.78V50l15.21,2.76v2.89Zm8.45,9.69h2.53a21.13,21.13,0,0,1,21.06,19.43H122.07ZM64.61,90.23H73.9a1.69,1.69,0,0,0,0-3.38H64.61V67.42h54.08V86.85H82.35a1.69,1.69,0,0,0,0,3.38h63.38v16.9h-3.48a15.21,15.21,0,0,0-30.22,0H98.32a15.21,15.21,0,0,0-30.23,0H66.3a1.69,1.69,0,0,1-1.69-1.69Z"/><path class="a392b302-7b1a-4bda-b994-23c749936c71" d="M127.14,117.27a8.45,8.45,0,1,0-8.45-8.45A8.45,8.45,0,0,0,127.14,117.27Zm0-13.52a5.07,5.07,0,1,1-5.07,5.07A5.07,5.07,0,0,1,127.14,103.75Z"/><path class="a392b302-7b1a-4bda-b994-23c749936c71" d="M91.65,108.82a8.45,8.45,0,1,0-8.45,8.45A8.45,8.45,0,0,0,91.65,108.82Zm-8.45,5.07a5.07,5.07,0,1,1,5.07-5.07A5.07,5.07,0,0,1,83.2,113.89Z"/><path class="a392b302-7b1a-4bda-b994-23c749936c71" d="M81.51,81.78V72.49a1.69,1.69,0,0,0-1.69-1.69H69.68A1.69,1.69,0,0,0,68,72.49v9.29a1.69,1.69,0,0,0,1.69,1.69H79.82A1.69,1.69,0,0,0,81.51,81.78Zm-3.38-1.69H71.37V74.18h6.76Z"/><path class="a392b302-7b1a-4bda-b994-23c749936c71" d="M86.58,83.47H96.72a1.69,1.69,0,0,0,1.69-1.69V72.49a1.69,1.69,0,0,0-1.69-1.69H86.58a1.69,1.69,0,0,0-1.69,1.69v9.29A1.69,1.69,0,0,0,86.58,83.47Zm1.69-9.29H95v5.91H88.27Z"/><path class="a392b302-7b1a-4bda-b994-23c749936c71" d="M103.48,83.47h10.14a1.69,1.69,0,0,0,1.69-1.69V72.49a1.69,1.69,0,0,0-1.69-1.69H103.48a1.69,1.69,0,0,0-1.69,1.69v9.29A1.69,1.69,0,0,0,103.48,83.47Zm1.69-9.29h6.76v5.91h-6.76Z"/><path class="a392b302-7b1a-4bda-b994-23c749936c71" d="M166.07,4l6.27,12.71a1.7,1.7,0,0,0,1.29.94l14,2a1.72,1.72,0,0,1,.95,2.93l-10.14,9.89A1.7,1.7,0,0,0,178,34l2.4,14a1.72,1.72,0,0,1-2.49,1.8l-12.54-6.59a1.72,1.72,0,0,0-1.59,0L151.2,49.73a1.72,1.72,0,0,1-2.49-1.8l2.4-14a1.73,1.73,0,0,0-.49-1.51l-10.15-9.89a1.72,1.72,0,0,1,.95-2.93l14-2a1.7,1.7,0,0,0,1.29-.94L163,4A1.71,1.71,0,0,1,166.07,4Z"/><path class="a4501036-2f2d-471f-a1fc-0ed2ea6dc727" d="M184.35,2l5.12,10.38a1.75,1.75,0,0,0,1.29.94l11.45,1.66a1.71,1.71,0,0,1,.95,2.92l-8.29,8.08a1.7,1.7,0,0,0-.49,1.51l2,11.4a1.71,1.71,0,0,1-2.48,1.81l-10.24-5.38a1.66,1.66,0,0,0-1.59,0l-10.24,5.38a1.72,1.72,0,0,1-2.49-1.81l2-11.4a1.7,1.7,0,0,0-.5-1.51l-8.28-8.08a1.71,1.71,0,0,1,.95-2.92l11.45-1.66a1.75,1.75,0,0,0,1.29-.94L181.28,2A1.71,1.71,0,0,1,184.35,2Z"/></g></g></svg>